<svg width="223" height="223" viewBox="0 0 223 223" fill="none" xmlns="http://www.w3.org/2000/svg">
<g clip-path="url(#clip0)">
<path d="M52.7313 51.5303C37.049 34.9852 17.7255 38.8494 3.4988 42.1199C-10.7279 45.39 21.2038 89.1516 49.405 72.2606L57.646 68.748L52.7313 51.5303Z" fill="#424242"/>
<path d="M52.1297 59.8002C45.3792 53.9085 37.7157 51.3332 28.2626 51.7299C26.0096 51.8244 23.7421 52.0805 21.4773 52.4482C18.9223 52.8632 17.8905 55.9696 19.6789 57.8407C20.6959 58.9047 21.8361 59.9953 23.1084 61.0868C29.9134 66.9279 37.474 70.1248 43.8517 69.8578H43.853C47.276 69.7141 50.4263 68.6196 53.4838 66.5111L54.1193 66.0729L52.1297 59.8002Z" fill="#EF999A"/>
<path d="M170.269 51.5304C185.952 34.9853 205.275 38.8499 219.501 42.12C233.728 45.3901 201.796 89.1517 173.595 72.2607L165.354 68.748L170.269 51.5304Z" fill="#424242"/>
<path d="M170.87 59.8002C177.62 53.9085 185.284 51.3332 194.737 51.7299C196.99 51.8244 199.257 52.0805 201.522 52.4482C204.077 52.8632 205.109 55.9696 203.321 57.8407C202.304 58.9047 201.163 59.9953 199.891 61.0868C193.086 66.9279 185.526 70.1248 179.148 69.8578H179.146C175.723 69.7141 172.573 68.6196 169.515 66.5111L168.88 66.0729L170.87 59.8002Z" fill="#EF999A"/>
<path d="M163.262 142.306C163.26 142.301 163.256 142.296 163.253 142.291L163.264 142.281L149.631 26.0639C140.153 20.3382 127.628 16.9728 111.5 16.9728C95.62 16.9728 83.2356 20.2389 73.8108 25.8052L73.3687 26.0639L73.7285 26.4838L59.7374 142.306H59.7379V142.306C60.0867 146.29 60.3328 150.042 60.5793 153.58H162.418C162.419 153.58 162.419 153.581 162.42 153.581L162.428 153.46C162.673 149.95 162.918 146.23 163.264 142.282C163.264 142.29 163.263 142.298 163.262 142.306Z" fill="#E6E1D7"/>
<path opacity="0.1" d="M57.646 68.7476L52.7313 51.53C49.1563 47.7582 45.3914 45.0499 41.5412 43.1505C39.458 47.942 37.8665 53.1049 36.7946 58.6033C35.7084 64.1757 35.163 70.0403 35.1491 76.1118C39.8495 76.212 44.6793 75.0909 49.405 72.2607L57.646 68.7476Z" fill="black"/>
<path d="M53.4186 107.596C57.3124 120.737 58.8559 132.247 59.7379 142.306C71.1506 121.327 90.8939 120.297 92.522 98.6666C94.654 70.3421 68.4615 68.5145 79.7304 33.4896L73.3692 26.064C46.8758 42.0673 44.2124 76.5251 53.4186 107.596Z" fill="#424242"/>
<path d="M69.5033 87.2278C67.7485 87.047 66.0568 87.3828 64.5703 88.1141C63.6883 88.5479 63.0551 89.3894 62.9527 90.3676L62.9514 90.3825C62.4126 95.6173 66.1065 100.286 71.202 100.81C72.9568 100.991 74.6484 100.655 76.135 99.924C77.0174 99.4902 77.6502 98.6487 77.7526 97.6705L77.7539 97.6557C78.2927 92.4213 74.5988 87.7526 69.5033 87.2278Z" fill="#212121"/>
<path d="M148.879 189.626C151.387 206.773 143.489 214.397 111.499 214.397H111.501C79.5108 214.397 71.6135 206.774 74.1214 189.626H148.879Z" fill="#D98B8C"/>
<path d="M148.879 189.626C160.137 181.458 161.29 169.793 162.421 153.581C149.343 147.084 131.354 143.072 111.499 143.072C91.6444 143.072 73.6576 147.084 60.5794 153.58C61.7097 169.792 62.863 181.458 74.1214 189.626C89.3556 198.22 111.5 197.829 111.5 197.829C111.5 197.829 133.644 198.22 148.879 189.626Z" fill="#EF999A"/>
<path d="M94.3057 165.275C92.3949 158.584 87.1561 154.213 82.6046 155.513C78.0532 156.812 75.9125 163.291 77.8234 169.982C79.7343 176.674 84.9731 181.045 89.5245 179.745C94.076 178.445 96.2166 171.967 94.3057 165.275Z" fill="#212121"/>
<path opacity="0.1" d="M186.205 58.6037C185.134 53.1049 183.542 47.9423 181.459 43.1509C177.609 45.0503 173.844 47.7585 170.269 51.5304L165.354 68.748L173.595 72.2611C178.321 75.0913 183.151 76.2124 187.851 76.1122C187.837 70.0407 187.292 64.176 186.205 58.6037Z" fill="black"/>
<path d="M169.581 107.596C165.688 120.737 164.144 132.247 163.262 142.306C151.849 121.327 132.106 120.297 130.478 98.6666C128.346 70.3421 154.539 68.5145 143.27 33.4896L149.631 26.064C176.124 42.0673 178.788 76.5251 169.581 107.596Z" fill="#424242"/>
<path d="M153.497 87.2278C155.252 87.047 156.943 87.3828 158.43 88.1141C159.312 88.5479 159.945 89.3894 160.047 90.3676L160.049 90.3825C160.588 95.6173 156.894 100.286 151.798 100.81C150.043 100.991 148.352 100.655 146.865 99.924C145.983 99.4902 145.35 98.6487 145.248 97.6705L145.246 97.6557C144.707 92.4213 148.401 87.7526 153.497 87.2278Z" fill="#212121"/>
<path d="M128.676 165.266C126.765 171.958 128.906 178.436 133.457 179.736C138.009 181.036 143.247 176.665 145.158 169.973C147.069 163.282 144.928 156.804 140.377 155.504C135.826 154.204 130.587 158.575 128.676 165.266Z" fill="#212121"/>
<path d="M88.8699 35.302C87.1146 41.7968 79.1907 44.5229 73.7769 40.529C67.944 36.2249 66.4954 27.4748 66.8839 20.7085C67.1213 16.573 69.2102 7.0254 75.1954 8.82682C82.6477 11.0699 82.8328 23.1842 87.1826 28.4857C89.1739 30.9117 89.423 33.2553 88.8699 35.302Z" fill="#FFCC80"/>
<path opacity="0.1" d="M78.2634 31.5549C72.4306 27.2513 70.9819 18.5007 71.3704 11.7345C71.4118 11.0167 71.5103 10.1339 71.6736 9.17786C68.3525 11.1191 67.0664 17.5199 66.8834 20.7085C66.4949 27.4747 67.9431 36.2258 73.7764 40.529C79.1903 44.5234 87.1137 41.7968 88.869 35.302C89.1455 34.2797 89.2213 33.1843 88.98 32.0406C85.7827 33.9239 81.5592 33.9862 78.2634 31.5549Z" fill="black"/>
<path d="M134.13 35.302C135.885 41.7968 143.809 44.5229 149.223 40.529C155.056 36.2249 156.505 27.4748 156.116 20.7085C155.879 16.573 153.79 7.0254 147.805 8.82682C140.352 11.0699 140.167 23.1842 135.817 28.4857C133.826 30.9117 133.577 33.2553 134.13 35.302Z" fill="#FFCC80"/>
<path opacity="0.1" d="M144.736 31.5549C150.569 27.2513 152.017 18.5007 151.629 11.7345C151.587 11.0167 151.489 10.1339 151.325 9.17786C154.647 11.1191 155.933 17.5199 156.116 20.7085C156.504 27.4747 155.056 36.2258 149.223 40.529C143.809 44.5234 135.885 41.7968 134.13 35.302C133.854 34.2797 133.778 33.1843 134.019 32.0406C137.217 33.9239 141.441 33.9862 144.736 31.5549Z" fill="black"/>
</g>
<defs>
<clipPath id="clip0">
<rect width="223" height="223" fill="white"/>
</clipPath>
</defs>
</svg>
