<svg width="211" height="211" viewBox="0 0 211 211" fill="none" xmlns="http://www.w3.org/2000/svg">
<g clip-path="url(#clip0)">
<path d="M92.1034 40.1905C87.0798 25.9562 77.0322 0 65.3097 0C58.0171 0 39.0597 16.8499 25.7729 29.5853C24.0321 31.2535 26.15 34.0105 28.2167 32.768C39.9362 25.7197 54.8154 18.1468 61.961 20.0952C65.0308 20.9326 72.0086 53.5873 72.0086 53.5873L92.1034 40.1905Z" fill="#C0C0C6"/>
<path d="M118.897 40.1905C123.921 25.9562 133.969 0 145.691 0C152.983 0 171.941 16.8499 185.228 29.5853C186.968 31.2535 184.85 34.0105 182.784 32.768C171.064 25.7197 156.185 18.1468 149.039 20.0952C145.97 20.9326 138.992 53.5873 138.992 53.5873L118.897 40.1905Z" fill="#C0C0C6"/>
<path d="M35.1669 93.9554C51.9129 77.0318 61.9606 93.7778 61.9606 93.7778V70.3334L35.1669 80.381V93.9554Z" fill="#9E9EA6"/>
<path d="M1.67484 90.384C1.67484 99.1755 29.4629 113.828 39.3535 93.7332C49.915 72.2747 61.9606 73.638 61.9606 73.638V66.9396C35.8996 66.9396 1.67484 82.0112 1.67484 90.384Z" fill="#C0C0C6"/>
<path d="M175.834 93.9554C159.088 77.0318 149.04 93.7778 149.04 93.7778V70.3334L175.834 80.381V93.9554Z" fill="#9E9EA6"/>
<path d="M209.325 90.384C209.325 99.1755 181.537 113.828 171.647 93.7332C161.085 72.2747 149.039 73.638 149.039 73.638V66.9396C175.101 66.9396 209.325 82.0112 209.325 90.384Z" fill="#C0C0C6"/>
<path d="M58.6113 87.0349C58.6113 117.178 82.0558 180.857 82.0558 180.857C85.405 195.928 92.5522 204.301 105.5 204.301C118.448 204.301 125.595 194.812 128.945 180.857C128.945 180.857 152.389 117.736 152.389 87.0349H58.6113Z" fill="#AC8A67"/>
<path d="M111.754 39.0762C109.782 40.0426 107.642 40.5251 105.5 40.5251C103.359 40.5251 101.218 40.0422 99.2469 39.0762C72.0349 25.7387 41.6926 82.0966 61.9152 90.3849C61.9152 90.3849 82.0557 93.7782 82.0557 103.826C82.0557 113.873 85.4049 180.858 85.4049 180.858H105.5H125.595C125.595 180.858 128.945 113.873 128.945 103.826C128.945 93.7782 149.085 90.3849 149.085 90.3849C169.308 82.0962 138.965 25.7387 111.754 39.0762Z" fill="#FFEBD2"/>
<path d="M136.138 43.1024C128.749 37.4689 120.107 34.9818 111.754 39.0753C109.782 40.0417 107.642 40.5242 105.5 40.5242C103.359 40.5242 101.218 40.0413 99.2469 39.0753C90.8942 34.9814 82.2523 37.4689 74.862 43.1024C70.2995 70.7326 92.1034 77.5975 92.1034 93.7777C92.1034 100.476 92.1034 147.365 92.1034 164.111H105.5H118.897C118.897 147.365 118.897 100.476 118.897 93.7777C118.897 77.5975 140.701 70.7326 136.138 43.1024Z" fill="#AC8A67"/>
<path d="M105.5 211C114.749 211 122.246 205.002 122.246 197.603C122.246 190.204 114.749 184.206 105.5 184.206C96.2517 184.206 88.7542 190.204 88.7542 197.603C88.7542 205.002 96.2517 211 105.5 211Z" fill="#FFEBD2"/>
<path d="M105.506 144.016H105.494C99.4743 144.016 94.1441 147.869 92.2826 153.593C88.3215 165.776 82.0558 185.845 82.0558 190.905C82.0558 198.304 88.0536 204.302 95.4526 204.302C97.8671 204.302 100.117 203.65 102.061 202.522C104.214 201.273 106.786 201.273 108.94 202.522C110.884 203.65 113.134 204.302 115.548 204.302C122.947 204.302 128.945 198.304 128.945 190.905C128.945 185.845 122.679 165.776 118.718 153.593C116.856 147.869 111.526 144.016 105.506 144.016Z" fill="white"/>
<path d="M75.3573 103.825C79.0568 103.825 82.0557 100.826 82.0557 97.127C82.0557 93.4276 79.0568 90.4286 75.3573 90.4286C71.6579 90.4286 68.6589 93.4276 68.6589 97.127C68.6589 100.826 71.6579 103.825 75.3573 103.825Z" fill="#464655"/>
<path d="M135.643 103.825C139.342 103.825 142.341 100.826 142.341 97.127C142.341 93.4276 139.342 90.4286 135.643 90.4286C131.944 90.4286 128.945 93.4276 128.945 97.127C128.945 100.826 131.944 103.825 135.643 103.825Z" fill="#464655"/>
<path d="M122.026 175.173C122.085 174.988 122.187 174.816 122.214 174.624C122.258 174.31 122.21 173.993 122.164 173.678C122.148 173.566 122.174 173.452 122.146 173.342C122.094 173.135 121.958 172.951 121.865 172.754C121.768 172.549 121.714 172.331 121.573 172.144L121.57 172.141V172.141C120.527 170.751 118.623 170.455 117.177 171.342C117.082 171.4 116.973 171.415 116.883 171.483L116.085 172.086C115.92 172.211 115.764 172.328 115.593 172.457C109.67 176.922 101.391 176.934 95.4559 172.487L94.1116 171.48C93.3953 170.942 92.5353 170.751 91.7123 170.849C91.6847 170.852 91.6571 170.841 91.6295 170.845C91.4531 170.871 91.2957 170.967 91.1255 171.02C90.4756 171.221 89.864 171.564 89.4251 172.151C88.3132 173.629 88.6137 175.729 90.0956 176.837L91.4366 177.845C91.4407 177.848 91.4453 177.85 91.4502 177.853L103.493 186.885C104.085 187.33 104.791 187.556 105.501 187.556C106.149 187.556 106.796 187.369 107.362 186.993C108.114 186.49 115.799 180.696 119.624 177.808C119.628 177.805 119.633 177.803 119.637 177.799L120.913 176.834L120.915 176.832C120.915 176.832 120.915 176.831 120.915 176.831C120.975 176.786 121.002 176.718 121.059 176.67C121.347 176.42 121.614 176.152 121.797 175.837C121.917 175.63 121.954 175.397 122.026 175.173Z" fill="#464655"/>
</g>
<defs>
<clipPath id="clip0">
<rect width="211" height="211" fill="white"/>
</clipPath>
</defs>
</svg>
